<?xml version="1.0" encoding="UTF-8"?>
<svg id="Layer_1" xmlns="http://www.w3.org/2000/svg" version="1.1" viewBox="0 0 24 24">
  <!-- Generator: Adobe Illustrator 29.1.0, SVG Export Plug-In . SVG Version: 2.1.0 Build 142)  -->
  <defs>
    <style>
      .st0 {
        fill: #fff;
      }

      .st1 {
        fill: #ff5f5f;
      }
    </style>
  </defs>
  <path class="st0" d="M20,0c-2.2,0-4,1.8-4,4s0,.1,0,.2l-8.6,2.7c-.7-1.1-2-1.9-3.4-1.9C1.8,5,0,6.8,0,9s1.8,4,4,4,1.5-.2,2.2-.7l6.3,5.8c-.3.6-.5,1.2-.5,1.9,0,2.2,1.8,4,4,4s4-1.8,4-4-.8-2.8-2.1-3.5l2.1-8.5c2.2,0,4-1.8,4-4s-1.8-4-4-4ZM4,11c-1.1,0-2-.9-2-2s.9-2,2-2,2,.9,2,2-.9,2-2,2ZM18,20c0,1.1-.9,2-2,2s-2-.9-2-2,.9-2,2-2,2,.9,2,2ZM16,16c-.8,0-1.5.2-2.1.7l-6.3-5.8c.3-.6.5-1.2.5-1.9s0-.1,0-.2l8.6-2.7c.4.6.9,1.1,1.5,1.4l-2.1,8.5ZM20,6c-1.1,0-2-.9-2-2s.9-2,2-2,2,.9,2,2-.9,2-2,2Z"/>
  <path class="st1" d="M4,5C1.8,5,0,6.8,0,9s1.8,4,4,4,4-1.8,4-4-1.8-4-4-4ZM4,11c-1.1,0-2-.9-2-2s.9-2,2-2,2,.9,2,2-.9,2-2,2Z"/>
</svg>