<?xml version="1.0" encoding="UTF-8"?>
<svg id="Outline" xmlns="http://www.w3.org/2000/svg" version="1.1" viewBox="0 0 512 512">
  <!-- Generator: Adobe Illustrator 29.1.0, SVG Export Plug-In . SVG Version: 2.1.0 Build 142)  -->
  <defs>
    <style>
      .st0 {
        fill: #fff;
      }
    </style>
  </defs>
  <path class="st0" d="M493.2,193.5L331.4,31.6c-41.7-41.6-109.2-41.6-150.9,0L18.8,193.5C6.7,205.4,0,221.7,0,238.7v209.4c0,35.3,28.7,64,64,64h384c35.3,0,64-28.7,64-64v-209.4c0-17-6.7-33.3-18.8-45.2ZM320,469.5h-128v-83.9c0-35.3,28.7-64,64-64s64,28.7,64,64v83.9ZM469.3,448.1c0,11.8-9.6,21.3-21.3,21.3h-85.3v-83.9c0-58.9-47.8-106.7-106.7-106.7s-106.7,47.8-106.7,106.7v83.9h-85.3c-11.8,0-21.3-9.6-21.3-21.3v-209.4c0-5.7,2.3-11.1,6.3-15.1L210.7,61.9c25-24.9,65.5-24.9,90.5,0l161.8,161.8c4,4,6.2,9.4,6.3,15v209.4Z"/>
</svg>